<svg width="112" height="112" viewBox="0 0 112 112" fill="none" xmlns="http://www.w3.org/2000/svg">
<g clip-path="url(#clip0_263_250)">
<path d="M55.572 65.2271C44.3795 65.2271 33.8345 62.452 27.822 58.0583V45.0621C34.6208 48.9008 44.5183 51.3521 55.572 51.3521C66.6258 51.3521 76.5233 48.9008 83.322 45.0621V56.347C84.8483 56.1158 86.3745 55.9771 87.947 55.9771C89.5195 55.9771 91.0458 56.1158 92.572 56.347V32.8521C92.572 22.6308 76.0145 14.3521 55.572 14.3521C35.1295 14.3521 18.572 22.6308 18.572 32.8521V79.1021C18.572 89.3233 35.1758 97.6021 55.572 97.6021H56.9133C56.0441 94.5948 55.5928 91.4823 55.572 88.3521C37.6733 88.3521 27.822 81.4146 27.822 79.1021V68.7883C35.2683 72.3958 45.027 74.4771 55.572 74.4771C56.682 74.4771 57.7458 74.4771 58.8095 74.3383C60.6595 70.4996 63.2033 67.1233 66.302 64.3483C62.8795 64.9033 59.272 65.2271 55.572 65.2271ZM55.572 23.6021C73.4708 23.6021 83.322 30.5396 83.322 32.8521C83.322 35.1646 73.4708 42.1021 55.572 42.1021C37.6733 42.1021 27.822 35.1646 27.822 32.8521C27.822 30.5396 37.6733 23.6021 55.572 23.6021ZM105.06 91.1271V86.5021L110.147 82.802C110.61 82.3395 111.072 81.8771 110.61 81.4146L105.985 73.5521C105.985 73.0896 105.06 73.0896 104.597 73.0896L99.047 75.4021C97.6595 74.4771 96.272 73.5521 94.8845 73.0896L93.9595 67.077C93.9595 66.6145 93.497 66.1521 93.0345 66.1521H83.7845C82.8595 66.1521 82.397 66.6145 82.397 67.077L81.472 73.0896C80.0845 74.0145 79.1595 74.4771 77.772 75.4021L72.222 73.0896C71.7595 73.0896 71.297 73.0896 70.8345 73.5521L66.2095 81.4146C66.2095 81.8771 66.2095 82.3395 66.672 82.802L71.7595 86.5021V91.1271L66.672 94.827C66.2095 95.2896 65.747 95.7521 66.2095 96.2146L70.8345 104.077C71.297 104.54 71.7595 104.54 72.222 104.54L77.772 102.227C78.697 103.152 80.0845 104.077 81.472 104.54L82.397 110.552C82.8595 111.015 83.322 111.477 83.7845 111.477H93.0345C93.497 111.477 93.9595 111.015 93.9595 110.552L94.8845 104.54C96.272 103.615 97.197 103.152 98.5845 102.227L104.135 104.077C104.597 104.077 105.06 104.077 105.522 103.615L110.147 95.7521C110.61 95.2896 110.61 94.827 110.147 94.827L105.06 91.1271ZM87.947 95.2896C84.247 95.2896 81.0095 92.052 81.0095 88.3521C81.0095 84.6521 84.247 81.4146 87.947 81.4146C91.647 81.4146 94.8845 84.6521 94.8845 88.3521C94.8845 92.052 91.647 95.2896 87.947 95.2896Z" fill="url(#paint0_linear_263_250)"/>
</g>
<defs>
<linearGradient id="paint0_linear_263_250" x1="64.6866" y1="14.3521" x2="64.6866" y2="111.477" gradientUnits="userSpaceOnUse">
<stop stop-color="#5561FF"/>
<stop offset="0.0001" stop-color="#5561FF"/>
<stop offset="1" stop-color="#3643FC"/>
<stop offset="1" stop-color="#3643FC"/>
<stop offset="1" stop-color="#3643FC"/>
</linearGradient>
<clipPath id="clip0_263_250">
<rect width="111" height="111" fill="white" transform="translate(0.0720291 0.477051)"/>
</clipPath>
</defs>
</svg>
