<svg width="112" height="112" viewBox="0 0 112 112" fill="none" xmlns="http://www.w3.org/2000/svg">
<path d="M89.1958 25.0151C83.0445 22.1476 76.3845 20.0664 69.447 18.8639C69.3862 18.8619 69.3257 18.8733 69.2697 18.8973C69.2138 18.9213 69.1638 18.9572 69.1233 19.0026C68.2908 20.5289 67.3195 22.5176 66.672 24.0439C59.3136 22.9339 51.8304 22.9339 44.472 24.0439C43.8245 22.4714 42.8533 20.5289 41.9745 19.0026C41.9283 18.9101 41.7895 18.8639 41.6508 18.8639C34.7133 20.0664 28.0995 22.1476 21.902 25.0151C21.8558 25.0151 21.8095 25.0614 21.7633 25.1076C9.18326 43.9314 5.71451 62.2464 7.42576 80.3764C7.42576 80.4689 7.47201 80.5614 7.56451 80.6076C15.8895 86.7126 23.8908 90.4126 31.7995 92.8639C31.9383 92.9101 32.077 92.8639 32.1233 92.7714C33.9733 90.2276 35.6383 87.5451 37.072 84.7239C37.1645 84.5389 37.072 84.3539 36.887 84.3076C34.2508 83.2901 31.7533 82.0876 29.302 80.7001C29.117 80.6076 29.117 80.3301 29.2558 80.1914C29.7645 79.8214 30.2733 79.4051 30.782 79.0351C30.8745 78.9426 31.0133 78.9426 31.1058 78.9889C47.0158 86.2501 64.1745 86.2501 79.8995 78.9889C79.992 78.9426 80.1308 78.9426 80.2233 79.0351C80.732 79.4514 81.2408 79.8214 81.7495 80.2376C81.9345 80.3764 81.9345 80.6539 81.7033 80.7464C79.2983 82.1801 76.7545 83.3364 74.1183 84.3539C73.9333 84.4001 73.887 84.6314 73.9333 84.7701C75.4133 87.5914 77.0783 90.2739 78.882 92.8176C79.0208 92.8639 79.1595 92.9101 79.2983 92.8639C87.2533 90.4126 95.2545 86.7126 103.58 80.6076C103.672 80.5614 103.718 80.4689 103.718 80.3764C105.753 59.4251 100.342 41.2489 89.3808 25.1076C89.3345 25.0614 89.2883 25.0151 89.1958 25.0151ZM39.477 69.3226C34.7133 69.3226 30.7358 64.9289 30.7358 59.5176C30.7358 54.1064 34.6208 49.7126 39.477 49.7126C44.3795 49.7126 48.2645 54.1526 48.2183 59.5176C48.2183 64.9289 44.3333 69.3226 39.477 69.3226ZM71.7133 69.3226C66.9495 69.3226 62.972 64.9289 62.972 59.5176C62.972 54.1064 66.857 49.7126 71.7133 49.7126C76.6158 49.7126 80.5008 54.1526 80.4545 59.5176C80.4545 64.9289 76.6158 69.3226 71.7133 69.3226Z" fill="url(#paint0_linear_263_276)"/>
<defs>
<linearGradient id="paint0_linear_263_276" x1="55.5792" y1="18.8636" x2="55.5792" y2="92.883" gradientUnits="userSpaceOnUse">
<stop stop-color="#5561FF"/>
<stop offset="0.0001" stop-color="#5561FF"/>
<stop offset="1" stop-color="#3643FC"/>
<stop offset="1" stop-color="#3643FC"/>
<stop offset="1" stop-color="#3643FC"/>
</linearGradient>
</defs>
</svg>
