<svg width="112" height="112" viewBox="0 0 112 112" fill="none" xmlns="http://www.w3.org/2000/svg">
<mask id="mask0_263_341" style="mask-type:luminance" maskUnits="userSpaceOnUse" x="7" y="8" width="97" height="92">
<path d="M74.072 42.1021H37.072C21.7471 42.1021 9.32202 54.5271 9.32202 69.8521C9.32202 85.177 21.7471 97.6021 37.072 97.6021H74.072C89.3969 97.6021 101.822 85.177 101.822 69.8521C101.822 54.5271 89.3969 42.1021 74.072 42.1021Z" fill="white" stroke="white" stroke-width="2.83333" stroke-linejoin="round"/>
<path d="M37.072 60.6021V79.1021M27.822 69.8521H46.322" stroke="black" stroke-width="2.83333" stroke-linecap="round" stroke-linejoin="round"/>
<path d="M55.572 37.4771V22.9407H74.072V9.72705" stroke="white" stroke-width="2.83333" stroke-linecap="round" stroke-linejoin="round"/>
<path d="M74.072 79.1021C76.5253 79.1021 78.878 78.1275 80.6128 76.3928C82.3475 74.6581 83.322 72.3053 83.322 69.8521C83.322 67.3988 82.3475 65.046 80.6128 63.3113C78.878 61.5766 76.5253 60.6021 74.072 60.6021C71.6188 60.6021 69.266 61.5766 67.5313 63.3113C65.7966 65.046 64.822 67.3988 64.822 69.8521C64.822 72.3053 65.7966 74.6581 67.5313 76.3928C69.266 78.1275 71.6188 79.1021 74.072 79.1021Z" fill="black" stroke="black" stroke-width="2.83333" stroke-linejoin="round"/>
</mask>
<g mask="url(#mask0_263_341)">
<path d="M0.0720215 0.477051H111.072V111.477H0.0720215V0.477051Z" fill="url(#paint0_linear_263_341)"/>
</g>
<defs>
<linearGradient id="paint0_linear_263_341" x1="55.572" y1="0.477051" x2="55.572" y2="111.477" gradientUnits="userSpaceOnUse">
<stop stop-color="#5561FF"/>
<stop offset="0.0001" stop-color="#5561FF"/>
<stop offset="1" stop-color="#3643FC"/>
<stop offset="1" stop-color="#3643FC"/>
<stop offset="1" stop-color="#3643FC"/>
</linearGradient>
</defs>
</svg>
