<svg width="112" height="112" viewBox="0 0 112 112" fill="none" xmlns="http://www.w3.org/2000/svg">
<path d="M18.572 9.61389H92.572C95.0253 9.61389 97.378 10.5884 99.1127 12.3232C100.847 14.0579 101.822 16.4106 101.822 18.8639V92.8639C101.822 95.3171 100.847 97.6699 99.1127 99.4046C97.378 101.139 95.0253 102.114 92.572 102.114H18.572C16.1188 102.114 13.766 101.139 12.0313 99.4046C10.2966 97.6699 9.32202 95.3171 9.32202 92.8639V18.8639C9.32202 16.4106 10.2966 14.0579 12.0313 12.3232C13.766 10.5884 16.1188 9.61389 18.572 9.61389ZM27.822 28.1139V46.6139H46.322V55.8639H37.072V83.6139H46.322V74.3639H64.822V83.6139H74.072V55.8639H64.822V46.6139H83.322V28.1139H64.822V46.6139H46.322V28.1139H27.822Z" fill="url(#paint0_linear_263_319)"/>
<defs>
<linearGradient id="paint0_linear_263_319" x1="55.572" y1="9.61389" x2="55.572" y2="102.114" gradientUnits="userSpaceOnUse">
<stop stop-color="#5561FF"/>
<stop offset="0.0001" stop-color="#5561FF"/>
<stop offset="1" stop-color="#3643FC"/>
<stop offset="1" stop-color="#3643FC"/>
<stop offset="1" stop-color="#3643FC"/>
</linearGradient>
</defs>
</svg>
