<svg width="112" height="112" viewBox="0 0 112 112" fill="none" xmlns="http://www.w3.org/2000/svg">
<path d="M74.072 55.9771C74.072 60.8836 72.1229 65.5891 68.6535 69.0585C65.1841 72.528 60.4785 74.4771 55.572 74.4771C50.6655 74.4771 45.96 72.528 42.4905 69.0585C39.0211 65.5891 37.072 60.8836 37.072 55.9771C37.072 51.0705 39.0211 46.365 42.4905 42.8956C45.96 39.4262 50.6655 37.4771 55.572 37.4771C60.4785 37.4771 65.1841 39.4262 68.6535 42.8956C72.1229 46.365 74.072 51.0705 74.072 55.9771ZM67.1345 55.9771C67.1345 52.9105 65.9163 49.9695 63.7479 47.8011C61.5796 45.6327 58.6386 44.4146 55.572 44.4146C52.5055 44.4146 49.5645 45.6327 47.3961 47.8011C45.2277 49.9695 44.0095 52.9105 44.0095 55.9771C44.0095 59.0436 45.2277 61.9846 47.3961 64.153C49.5645 66.3214 52.5055 67.5396 55.572 67.5396C58.6386 67.5396 61.5796 66.3214 63.7479 64.153C65.9163 61.9846 67.1345 59.0436 67.1345 55.9771Z" fill="url(#paint0_linear_263_183)"/>
<path d="M55.572 5.10205C56.8023 5.10205 58.0325 5.14368 59.2581 5.23155C62.787 5.48593 65.4788 8.08518 66.2511 11.2626L67.8791 17.9688C67.967 18.3296 68.2954 18.7597 68.9198 18.9909C70.0621 19.4025 71.186 19.8697 72.2868 20.3877C72.888 20.6698 73.4245 20.5912 73.7436 20.3969L79.6405 16.8079C82.4294 15.1059 86.1664 15.1753 88.8443 17.4878C90.7035 19.1019 92.4518 20.8456 94.0613 22.7094C96.3784 25.3827 96.4431 29.1197 94.7411 31.9132L91.1522 37.8054C90.9579 38.1245 90.8839 38.661 91.1614 39.2623C91.6794 40.363 92.1465 41.4869 92.5628 42.6293C92.7848 43.2537 93.2195 43.5774 93.5803 43.6699L100.287 45.2979C103.464 46.0703 106.063 48.7621 106.313 52.2909C106.489 54.7468 106.489 57.2073 106.313 59.6632C106.063 63.1921 103.464 65.8838 100.287 66.6562L93.5803 68.2842C93.2195 68.3721 92.7894 68.7004 92.5581 69.3248C92.1465 70.4718 91.6794 71.5957 91.1614 72.6918C90.8793 73.2931 90.9579 73.8296 91.1522 74.1487L94.7411 80.0456C96.4431 82.8344 96.3738 86.5714 94.0613 89.2493C92.4472 91.1086 90.7035 92.8568 88.8397 94.4663C86.1664 96.7834 82.4294 96.8482 79.6359 95.1462L73.7436 91.5572C73.4245 91.3629 72.888 91.2889 72.2914 91.5664C71.1895 92.0849 70.0645 92.5525 68.9198 92.9678C68.2954 93.1898 67.9716 93.6245 67.8791 93.9853L66.2511 100.692C65.4788 103.869 62.787 106.468 59.2581 106.718C56.8023 106.894 54.3418 106.894 51.8859 106.718C48.357 106.468 45.6653 103.869 44.8929 100.692L43.2649 93.9853C43.177 93.6245 42.8486 93.1944 42.2243 92.9632C41.08 92.5522 39.9564 92.0861 38.8573 91.5664C38.256 91.2843 37.7195 91.3629 37.4004 91.5572L31.5035 95.1462C28.7146 96.8482 24.9776 96.7788 22.2998 94.4663C20.4405 92.8522 18.6923 91.1086 17.0828 89.2447C14.7656 86.5714 14.7009 82.8344 16.4029 80.0409L19.9919 74.1487C20.1861 73.8296 20.2601 73.2931 19.9826 72.6964C19.4642 71.5946 18.9966 70.4695 18.5813 69.3248C18.3593 68.7004 17.9245 68.3767 17.5638 68.2842L10.8575 66.6562C7.68014 65.8838 5.08089 63.1921 4.82652 59.6632C4.65076 57.2089 4.65076 54.7452 4.82652 52.2909C5.08089 48.7621 7.68014 46.0703 10.8575 45.2979L17.5638 43.6699C17.9245 43.5821 18.3546 43.2537 18.5859 42.6293C18.9975 41.4823 19.4646 40.3584 19.9826 39.2623C20.2648 38.661 20.1861 38.1245 19.9919 37.8054L16.4029 31.9086C14.7009 29.1197 14.7703 25.3827 17.0828 22.7048C18.6969 20.8456 20.4405 19.0973 22.3044 17.4878C24.9776 15.1707 28.7146 15.1059 31.5081 16.8079L37.4004 20.3969C37.7195 20.5912 38.256 20.6652 38.8573 20.3877C39.958 19.8697 41.0819 19.4025 42.2243 18.9863C42.8486 18.7643 43.1724 18.3296 43.2649 17.9688L44.8929 11.2626C45.6653 8.08518 48.357 5.48593 51.8859 5.23155C53.1023 5.1483 54.3325 5.10205 55.572 5.10205ZM52.3808 12.1552C52.1264 12.1737 51.7564 12.3864 51.6361 12.8998L50.0035 19.6061C49.6577 20.9614 48.9818 22.2101 48.0359 23.2407C47.0901 24.2713 45.9038 25.0517 44.583 25.5122C43.641 25.8538 42.7151 26.2381 41.808 26.6638C40.547 27.2737 39.1546 27.5617 37.7551 27.502C36.3556 27.4423 34.9927 27.0367 33.7883 26.3216L27.896 22.7325C27.4428 22.455 27.0358 22.566 26.8415 22.7325C25.2324 24.129 23.7239 25.6374 22.3275 27.2466C22.161 27.4408 22.05 27.8524 22.3275 28.3011L25.9165 34.1933C27.3688 36.6399 27.4983 39.6508 26.2588 42.2131C25.833 43.1201 25.4488 44.0461 25.1071 44.988C24.6472 46.3105 23.8665 47.4982 22.835 48.445C21.8035 49.3918 20.5533 50.068 19.1964 50.4132L12.4901 52.0365C11.9814 52.1614 11.7686 52.5314 11.7501 52.7858C11.5975 54.9106 11.5975 57.0435 11.7501 59.1683C11.7686 59.4227 11.9814 59.7927 12.4948 59.9129L19.201 61.5456C20.5564 61.8913 21.8051 62.5673 22.8357 63.5131C23.8662 64.459 24.6466 65.6452 25.1071 66.9661C25.4494 67.9096 25.8333 68.8345 26.2588 69.7411C27.4983 72.2987 27.3688 75.3095 25.9165 77.7562L22.3275 83.653C22.05 84.1063 22.161 84.5133 22.3275 84.7076C23.7196 86.317 25.232 87.8294 26.8415 89.2215C27.0358 89.388 27.4474 89.499 27.896 89.2215L33.7883 85.6326C34.9919 84.9155 36.3547 84.5084 37.7544 84.4479C39.1541 84.3873 40.547 84.6752 41.808 85.2857C42.7145 85.7158 43.6395 86.0997 44.583 86.4419C45.9055 86.9019 47.0932 87.6825 48.04 88.7141C48.9867 89.7456 49.663 90.9958 50.0081 92.3527L51.6315 99.0589C51.7564 99.5677 52.1264 99.7804 52.3808 99.7989C54.5055 99.9516 56.6385 99.9516 58.7633 99.7989C59.0176 99.7804 59.3876 99.5677 59.5079 99.0543L61.1405 92.3481C61.4864 90.9922 62.1623 89.7429 63.1081 88.7116C64.0538 87.6803 65.2401 86.899 66.561 86.4373C67.5037 86.0992 68.4297 85.7165 69.336 85.2903C70.5962 84.6804 71.9879 84.3924 73.3867 84.4521C74.7854 84.5118 76.1476 84.9174 77.3511 85.6326L83.248 89.2215C83.7013 89.499 84.1083 89.388 84.3025 89.2215C85.912 87.8294 87.4244 86.317 88.8165 84.7076C88.983 84.5133 89.094 84.1017 88.8165 83.653L85.2275 77.7562C84.5128 76.5525 84.1071 75.1907 84.0466 73.7922C83.9861 72.3937 84.2726 71.0019 84.8806 69.7411C85.3108 68.8345 85.6946 67.9096 86.0369 66.9661C86.4968 65.6436 87.2775 64.4559 88.309 63.5091C89.3405 62.5623 90.5907 61.8861 91.9476 61.5409L98.6539 59.9176C99.1627 59.7927 99.3754 59.4227 99.3939 59.1683C99.5465 57.0435 99.5465 54.9106 99.3939 52.7858C99.3754 52.5314 99.1626 52.1614 98.6493 52.0412L91.943 50.4086C89.0478 49.7055 86.948 47.5179 86.0323 44.988C85.6959 44.0447 85.3131 43.1186 84.8853 42.2131C84.2753 40.9521 83.9873 39.5596 84.0471 38.1601C84.1068 36.7606 84.5124 35.3977 85.2275 34.1933L88.8165 28.3011C89.094 27.8478 88.983 27.4408 88.8165 27.2466C87.4201 25.6374 85.9117 24.129 84.3025 22.7325C84.1083 22.566 83.6966 22.455 83.248 22.7325L77.3511 26.3216C76.1476 27.0367 74.7854 27.4423 73.3867 27.502C71.9879 27.5617 70.5962 27.2737 69.336 26.6638C68.4297 26.2364 67.5036 25.8521 66.561 25.5122C65.2394 25.0508 64.0525 24.2696 63.1059 23.2383C62.1593 22.2071 61.4826 20.9576 61.1359 19.6014L59.5125 12.8952C59.3876 12.3864 59.0176 12.1737 58.7633 12.1552C56.6385 12.0025 54.5055 12.0025 52.3808 12.1552Z" fill="url(#paint1_linear_263_183)"/>
<defs>
<linearGradient id="paint0_linear_263_183" x1="55.572" y1="37.4771" x2="55.572" y2="74.4771" gradientUnits="userSpaceOnUse">
<stop stop-color="#5561FF"/>
<stop offset="0.0001" stop-color="#5561FF"/>
<stop offset="1" stop-color="#3643FC"/>
<stop offset="1" stop-color="#3643FC"/>
<stop offset="1" stop-color="#3643FC"/>
</linearGradient>
<linearGradient id="paint1_linear_263_183" x1="55.5697" y1="5.10205" x2="55.5697" y2="106.85" gradientUnits="userSpaceOnUse">
<stop stop-color="#5561FF"/>
<stop offset="0.0001" stop-color="#5561FF"/>
<stop offset="1" stop-color="#3643FC"/>
<stop offset="1" stop-color="#3643FC"/>
<stop offset="1" stop-color="#3643FC"/>
</linearGradient>
</defs>
</svg>
