<svg width="112" height="112" viewBox="0 0 112 112" fill="none" xmlns="http://www.w3.org/2000/svg">
<g clip-path="url(#clip0_263_147)">
<path d="M87.947 18.9771C90.4003 18.9771 92.753 19.9516 94.4878 21.6863C96.2225 23.421 97.197 25.7738 97.197 28.2271V83.7271C97.197 86.1803 96.2225 88.5331 94.4878 90.2678C92.753 92.0025 90.4003 92.9771 87.947 92.9771H23.197C20.7438 92.9771 18.391 92.0025 16.6563 90.2678C14.9216 88.5331 13.947 86.1803 13.947 83.7271V28.2271C13.947 25.7738 14.9216 23.421 16.6563 21.6863C18.391 19.9516 20.7438 18.9771 23.197 18.9771H87.947ZM87.947 55.9771H23.197V83.7271H87.947V55.9771ZM87.947 28.2271H23.197V46.7271H87.947V28.2271ZM32.447 32.8521C33.6736 32.8521 34.85 33.3393 35.7174 34.2067C36.5847 35.074 37.072 36.2504 37.072 37.4771C37.072 38.7037 36.5847 39.8801 35.7174 40.7474C34.85 41.6148 33.6736 42.1021 32.447 42.1021C31.2204 42.1021 30.044 41.6148 29.1767 40.7474C28.3093 39.8801 27.822 38.7037 27.822 37.4771C27.822 36.2504 28.3093 35.074 29.1767 34.2067C30.044 33.3393 31.2204 32.8521 32.447 32.8521ZM46.322 32.8521C47.5486 32.8521 48.725 33.3393 49.5924 34.2067C50.4597 35.074 50.947 36.2504 50.947 37.4771C50.947 38.7037 50.4597 39.8801 49.5924 40.7474C48.725 41.6148 47.5486 42.1021 46.322 42.1021C45.0954 42.1021 43.919 41.6148 43.0517 40.7474C42.1843 39.8801 41.697 38.7037 41.697 37.4771C41.697 36.2504 42.1843 35.074 43.0517 34.2067C43.919 33.3393 45.0954 32.8521 46.322 32.8521ZM60.197 32.8521C61.4236 32.8521 62.6 33.3393 63.4674 34.2067C64.3347 35.074 64.822 36.2504 64.822 37.4771C64.822 38.7037 64.3347 39.8801 63.4674 40.7474C62.6 41.6148 61.4236 42.1021 60.197 42.1021C58.9704 42.1021 57.794 41.6148 56.9267 40.7474C56.0593 39.8801 55.572 38.7037 55.572 37.4771C55.572 36.2504 56.0593 35.074 56.9267 34.2067C57.794 33.3393 58.9704 32.8521 60.197 32.8521Z" fill="url(#paint0_linear_263_147)"/>
</g>
<defs>
<linearGradient id="paint0_linear_263_147" x1="55.572" y1="18.9771" x2="55.572" y2="92.9771" gradientUnits="userSpaceOnUse">
<stop stop-color="#5561FF"/>
<stop offset="0.0001" stop-color="#5561FF"/>
<stop offset="1" stop-color="#3643FC"/>
<stop offset="1" stop-color="#3643FC"/>
<stop offset="1" stop-color="#3643FC"/>
</linearGradient>
<clipPath id="clip0_263_147">
<rect width="111" height="111" fill="white" transform="translate(0.0720215 0.477051)"/>
</clipPath>
</defs>
</svg>
